# xmcd
#
# Track frame offsets: 
#        150
#        22073
#        40647
#        56857
#        69294
#        88042
#        105960
#        126583
#        141438
#        159730
#        174219
#        187896
#
# Disc length: 2770 seconds
#
# Revision: 5
# Processed by: cddbd v1.5.2PL0 Copyright (c) Steve Scherf et al.
# Submitted via: ExactAudioCopyFreeDBPlugin 1.0
#
DISCID=a00ad00c
DTITLE=鍾鎮濤 - 最佳鍾鎮濤
DYEAR=1986
DGENRE=Blues
TTITLE0=浪漫小夜曲
TTITLE1=一段情
TTITLE2=夢裡嫣紅
TTITLE3=不可以不想你
TTITLE4=痴心的一句
TTITLE5=愛情組曲
TTITLE6=魅幻
TTITLE7=閃閃星晨
TTITLE8=要是有緣
TTITLE9=讓我坦蕩蕩
TTITLE10=淚之旅
TTITLE11=我寂寞
EXTD=YEAR: 1986
EXTT0=
EXTT1=
EXTT2=
EXTT3=
EXTT4=
EXTT5=
EXTT6=
EXTT7=
EXTT8=
EXTT9=
EXTT10=
EXTT11=
PLAYORDER=
